<svg width="61" height="16" viewBox="0 0 61 16" fill="none" xmlns="http://www.w3.org/2000/svg">
<g clip-path="url(#clip0_882_5)">
<path d="M53 0H8C3.58172 0 0 3.58172 0 8C0 12.4183 3.58172 16 8 16H53C57.4183 16 61 12.4183 61 8C61 3.58172 57.4183 0 53 0Z" fill="#A2EE2F"/>
<path d="M7.06699 11.9412L6.01099 4.24113H7.14399L7.78199 9.84013L8.72799 4.24113H9.87199L10.818 9.84013L11.456 4.24113H12.589L11.533 11.9412H10.18L9.29999 6.49613L8.41999 11.9412H7.06699ZM12.4637 11.9412L14.7627 4.24113H16.1487L18.4477 11.9412H17.1827L16.6657 10.0932H14.2457L13.7287 11.9412H12.4637ZM15.4227 5.89113L14.5097 9.15813H16.4017L15.4887 5.89113H15.4227ZM20.9184 11.9412L18.5424 4.24113H19.7964L21.6114 10.4012L23.4264 4.24113H24.6804L22.3044 11.9412H20.9184ZM25.3471 11.9412V4.24113H30.2641V5.28613H26.5131V7.53013H29.9341V8.56413H26.5131V10.8962H30.2641V11.9412H25.3471ZM31.4478 11.9412V4.24113H33.9668C34.5681 4.24113 35.0631 4.3438 35.4518 4.54913C35.8478 4.75446 36.1411 5.03313 36.3318 5.38513C36.5298 5.7298 36.6288 6.12213 36.6288 6.56213C36.6288 7.0608 36.5005 7.50447 36.2438 7.89313C35.9945 8.27447 35.6095 8.55313 35.0888 8.72913L36.7058 11.9412H35.3528L33.8788 8.89413H32.6138V11.9412H31.4478ZM32.6138 7.83813H33.9008C34.4288 7.83813 34.8138 7.7208 35.0558 7.48613C35.3051 7.25147 35.4298 6.94347 35.4298 6.56213C35.4298 6.17346 35.3088 5.86546 35.0668 5.63813C34.8248 5.40347 34.4325 5.28613 33.8898 5.28613H32.6138V7.83813ZM40.0785 12.0732C39.4552 12.0732 38.9162 11.9118 38.4615 11.5892C38.0068 11.2665 37.6585 10.8082 37.4165 10.2142C37.1745 9.62013 37.0535 8.91247 37.0535 8.09113C37.0535 7.2698 37.1745 6.56213 37.4165 5.96813C37.6585 5.37413 38.0068 4.9158 38.4615 4.59313C38.9162 4.27047 39.4552 4.10913 40.0785 4.10913C40.7092 4.10913 41.2482 4.27047 41.6955 4.59313C42.1502 4.9158 42.4985 5.37413 42.7405 5.96813C42.9825 6.56213 43.1035 7.2698 43.1035 8.09113C43.1035 8.91247 42.9825 9.62013 42.7405 10.2142C42.4985 10.8082 42.1502 11.2665 41.6955 11.5892C41.2482 11.9118 40.7092 12.0732 40.0785 12.0732ZM40.0785 10.9732C40.6285 10.9732 41.0722 10.7275 41.4095 10.2362C41.7468 9.73747 41.9155 9.02247 41.9155 8.09113C41.9155 7.1598 41.7468 6.44847 41.4095 5.95713C41.0722 5.45846 40.6285 5.20913 40.0785 5.20913C39.5212 5.20913 39.0738 5.45846 38.7365 5.95713C38.4065 6.44847 38.2415 7.1598 38.2415 8.09113C38.2415 9.02247 38.4065 9.73747 38.7365 10.2362C39.0738 10.7275 39.5212 10.9732 40.0785 10.9732ZM46.2342 12.0732C45.6109 12.0732 45.0719 11.9118 44.6172 11.5892C44.1626 11.2665 43.8142 10.8082 43.5722 10.2142C43.3302 9.62013 43.2092 8.91247 43.2092 8.09113C43.2092 7.2698 43.3302 6.56213 43.5722 5.96813C43.8142 5.37413 44.1626 4.9158 44.6172 4.59313C45.0719 4.27047 45.6109 4.10913 46.2342 4.10913C46.8649 4.10913 47.4039 4.27047 47.8512 4.59313C48.3059 4.9158 48.6542 5.37413 48.8962 5.96813C49.1382 6.56213 49.2592 7.2698 49.2592 8.09113C49.2592 8.91247 49.1382 9.62013 48.8962 10.2142C48.6542 10.8082 48.3059 11.2665 47.8512 11.5892C47.4039 11.9118 46.8649 12.0732 46.2342 12.0732ZM46.2342 10.9732C46.7842 10.9732 47.2279 10.7275 47.5652 10.2362C47.9026 9.73747 48.0712 9.02247 48.0712 8.09113C48.0712 7.1598 47.9026 6.44847 47.5652 5.95713C47.2279 5.45846 46.7842 5.20913 46.2342 5.20913C45.6769 5.20913 45.2296 5.45846 44.8922 5.95713C44.5622 6.44847 44.3972 7.1598 44.3972 8.09113C44.3972 9.02247 44.5622 9.73747 44.8922 10.2362C45.2296 10.7275 45.6769 10.9732 46.2342 10.9732ZM49.5629 11.9412V4.24113H50.7949L52.3899 7.71713L53.9849 4.24113H55.2169V11.9412H54.1059V6.46313L52.8519 9.21313H51.9279L50.6739 6.47413V11.9412H49.5629Z" fill="#243C00"/>
</g>
<defs>
<clipPath id="clip0_882_5">
<rect width="61" height="16" fill="white"/>
</clipPath>
</defs>
</svg>
